<svg xmlns="http://www.w3.org/2000/svg" viewBox="0 0 470 120" width="470" height="120" role="img" aria-label="Helix"><defs></defs><g><defs><linearGradient id="g-l3" x1="0" y1="12" x2="0" y2="108" gradientUnits="userSpaceOnUse"><stop offset="0" stop-color="#4ade80"></stop><stop offset="1" stop-color="#22c55e"></stop></linearGradient><mask id="cutL-l3" maskUnits="userSpaceOnUse" x="0" y="0" width="120" height="120"><rect x="0" y="0" width="120" height="120" fill="#fff"></rect><path d="M 22.45 12 L 22.71 13.2 L 23.11 14.4 L 23.66 15.6 L 24.34 16.8 L 25.15 18 L 26.09 19.2 L 27.13 20.4 L 28.28 21.6 L 29.51 22.8 L 30.73 24 L 31.9 25.2 L 33.11 26.4 L 34.34 27.6 L 35.57 28.8 L 36.8 30 L 37.99 31.2 L 39.15 32.4 L 40.24 33.6 L 41.25 34.8 L 42.17 36 L 43 37.2 L 43.7 38.4 L 44.29 39.6 L 44.74 40.8 L 45.05 42 L 45.22 43.2 L 45.24 44.4 L 45.12 45.6 L 44.86 46.8 L 44.45 48 L 43.91 49.2 L 43.24 50.4 L 42.46 51.6 L 41.57 52.8 L 40.58 54 L 39.52 55.2 L 38.38 56.4 L 37.2 57.6 L 35.98 58.8 L 34.75 60 L 33.52 61.2 L 32.3 62.4 L 31.12 63.6 L 29.98 64.8 L 28.92 66 L 27.93 67.2 L 27.04 68.4 L 26.26 69.6 L 25.59 70.8 L 25.05 72 L 24.64 73.2 L 24.38 74.4 L 24.26 75.6 L 24.28 76.8 L 24.45 78 L 24.76 79.2 L 25.21 80.4 L 25.8 81.6 L 26.5 82.8 L 27.33 84 L 28.25 85.2 L 29.26 86.4 L 30.35 87.6 L 31.51 88.8 L 32.7 90 L 33.93 91.2 L 35.16 92.4 L 36.39 93.6 L 37.6 94.8 L 38.77 96 L 39.77 97.2 L 40.62 98.4 L 41.39 99.6 L 42.06 100.8 L 42.62 102 L 43.05 103.2 L 43.36 104.4 L 43.53 105.6 L 43.56 106.8 L 43.45 108 L 37.55 108 L 37.29 106.8 L 36.89 105.6 L 36.34 104.4 L 35.66 103.2 L 34.85 102 L 33.91 100.8 L 32.87 99.6 L 31.72 98.4 L 30.49 97.2 L 29.27 96 L 28.1 94.8 L 26.89 93.6 L 25.66 92.4 L 24.43 91.2 L 23.2 90 L 22.01 88.8 L 20.85 87.6 L 19.76 86.4 L 18.75 85.2 L 17.83 84 L 17 82.8 L 16.3 81.6 L 15.71 80.4 L 15.26 79.2 L 14.95 78 L 14.78 76.8 L 14.76 75.6 L 14.88 74.4 L 15.14 73.2 L 15.55 72 L 16.09 70.8 L 16.76 69.6 L 17.54 68.4 L 18.43 67.2 L 19.42 66 L 20.48 64.8 L 21.62 63.6 L 22.8 62.4 L 24.02 61.2 L 25.25 60 L 26.48 58.8 L 27.7 57.6 L 28.88 56.4 L 30.02 55.2 L 31.08 54 L 32.07 52.8 L 32.96 51.6 L 33.74 50.4 L 34.41 49.2 L 34.95 48 L 35.36 46.8 L 35.62 45.6 L 35.74 44.4 L 35.72 43.2 L 35.55 42 L 35.24 40.8 L 34.79 39.6 L 34.2 38.4 L 33.5 37.2 L 32.67 36 L 31.75 34.8 L 30.74 33.6 L 29.65 32.4 L 28.49 31.2 L 27.3 30 L 26.07 28.8 L 24.84 27.6 L 23.61 26.4 L 22.4 25.2 L 21.23 24 L 20.23 22.8 L 19.38 21.6 L 18.61 20.4 L 17.94 19.2 L 17.38 18 L 16.95 16.8 L 16.64 15.6 L 16.47 14.4 L 16.44 13.2 L 16.55 12 Z" fill="#000" stroke="#000" stroke-width="6" stroke-linejoin="round"></path></mask><mask id="cutR-l3" maskUnits="userSpaceOnUse" x="0" y="0" width="120" height="120"><rect x="0" y="0" width="120" height="120" fill="#fff"></rect><path d="M 82.44 12 L 82.71 13.2 L 83.11 14.4 L 83.66 15.6 L 84.34 16.8 L 85.15 18 L 86.09 19.2 L 87.13 20.4 L 88.28 21.6 L 89.51 22.8 L 90.73 24 L 91.9 25.2 L 93.11 26.4 L 94.34 27.6 L 95.57 28.8 L 96.8 30 L 97.99 31.2 L 99.15 32.4 L 100.24 33.6 L 101.25 34.8 L 102.17 36 L 103 37.2 L 103.7 38.4 L 104.29 39.6 L 104.74 40.8 L 105.05 42 L 105.22 43.2 L 105.24 44.4 L 105.12 45.6 L 104.86 46.8 L 104.45 48 L 103.91 49.2 L 103.24 50.4 L 102.46 51.6 L 101.57 52.8 L 100.58 54 L 99.52 55.2 L 98.38 56.4 L 97.2 57.6 L 95.98 58.8 L 94.75 60 L 93.52 61.2 L 92.3 62.4 L 91.12 63.6 L 89.98 64.8 L 88.92 66 L 87.93 67.2 L 87.04 68.4 L 86.26 69.6 L 85.59 70.8 L 85.05 72 L 84.64 73.2 L 84.38 74.4 L 84.26 75.6 L 84.28 76.8 L 84.45 78 L 84.76 79.2 L 85.21 80.4 L 85.8 81.6 L 86.5 82.8 L 87.33 84 L 88.25 85.2 L 89.26 86.4 L 90.35 87.6 L 91.51 88.8 L 92.7 90 L 93.93 91.2 L 95.16 92.4 L 96.39 93.6 L 97.6 94.8 L 98.77 96 L 99.77 97.2 L 100.62 98.4 L 101.39 99.6 L 102.06 100.8 L 102.62 102 L 103.05 103.2 L 103.36 104.4 L 103.53 105.6 L 103.56 106.8 L 103.44 108 L 97.56 108 L 97.29 106.8 L 96.89 105.6 L 96.34 104.4 L 95.66 103.2 L 94.85 102 L 93.91 100.8 L 92.87 99.6 L 91.72 98.4 L 90.49 97.2 L 89.27 96 L 88.1 94.8 L 86.89 93.6 L 85.66 92.4 L 84.43 91.2 L 83.2 90 L 82.01 88.8 L 80.85 87.6 L 79.76 86.4 L 78.75 85.2 L 77.83 84 L 77 82.8 L 76.3 81.6 L 75.71 80.4 L 75.26 79.2 L 74.95 78 L 74.78 76.8 L 74.76 75.6 L 74.88 74.4 L 75.14 73.2 L 75.55 72 L 76.09 70.8 L 76.76 69.6 L 77.54 68.4 L 78.43 67.2 L 79.42 66 L 80.48 64.8 L 81.62 63.6 L 82.8 62.4 L 84.02 61.2 L 85.25 60 L 86.48 58.8 L 87.7 57.6 L 88.88 56.4 L 90.02 55.2 L 91.08 54 L 92.07 52.8 L 92.96 51.6 L 93.74 50.4 L 94.41 49.2 L 94.95 48 L 95.36 46.8 L 95.62 45.6 L 95.74 44.4 L 95.72 43.2 L 95.55 42 L 95.24 40.8 L 94.79 39.6 L 94.2 38.4 L 93.5 37.2 L 92.67 36 L 91.75 34.8 L 90.74 33.6 L 89.65 32.4 L 88.49 31.2 L 87.3 30 L 86.07 28.8 L 84.84 27.6 L 83.61 26.4 L 82.4 25.2 L 81.23 24 L 80.23 22.8 L 79.38 21.6 L 78.61 20.4 L 77.94 19.2 L 77.38 18 L 76.95 16.8 L 76.64 15.6 L 76.47 14.4 L 76.44 13.2 L 76.56 12 Z" fill="#000" stroke="#000" stroke-width="6" stroke-linejoin="round"></path></mask></defs><path d="M 43.45 12 L 43.56 13.2 L 43.53 14.4 L 43.36 15.6 L 43.05 16.8 L 42.62 18 L 42.06 19.2 L 41.39 20.4 L 40.62 21.6 L 39.77 22.8 L 38.77 24 L 37.6 25.2 L 36.39 26.4 L 35.16 27.6 L 33.93 28.8 L 32.7 30 L 31.51 31.2 L 30.35 32.4 L 29.26 33.6 L 28.25 34.8 L 27.33 36 L 26.5 37.2 L 25.8 38.4 L 25.21 39.6 L 24.76 40.8 L 24.45 42 L 24.28 43.2 L 24.26 44.4 L 24.38 45.6 L 24.64 46.8 L 25.05 48 L 25.59 49.2 L 26.26 50.4 L 27.04 51.6 L 27.93 52.8 L 28.92 54 L 29.98 55.2 L 31.12 56.4 L 32.3 57.6 L 33.52 58.8 L 34.75 60 L 35.98 61.2 L 37.2 62.4 L 38.38 63.6 L 39.52 64.8 L 40.58 66 L 41.57 67.2 L 42.46 68.4 L 43.24 69.6 L 43.91 70.8 L 44.45 72 L 44.86 73.2 L 45.12 74.4 L 45.24 75.6 L 45.22 76.8 L 45.05 78 L 44.74 79.2 L 44.29 80.4 L 43.7 81.6 L 43 82.8 L 42.17 84 L 41.25 85.2 L 40.24 86.4 L 39.15 87.6 L 37.99 88.8 L 36.8 90 L 35.57 91.2 L 34.34 92.4 L 33.11 93.6 L 31.9 94.8 L 30.73 96 L 29.51 97.2 L 28.28 98.4 L 27.13 99.6 L 26.09 100.8 L 25.15 102 L 24.34 103.2 L 23.66 104.4 L 23.11 105.6 L 22.71 106.8 L 22.45 108 L 16.55 108 L 16.44 106.8 L 16.47 105.6 L 16.64 104.4 L 16.95 103.2 L 17.38 102 L 17.94 100.8 L 18.61 99.6 L 19.38 98.4 L 20.23 97.2 L 21.23 96 L 22.4 94.8 L 23.61 93.6 L 24.84 92.4 L 26.07 91.2 L 27.3 90 L 28.49 88.8 L 29.65 87.6 L 30.74 86.4 L 31.75 85.2 L 32.67 84 L 33.5 82.8 L 34.2 81.6 L 34.79 80.4 L 35.24 79.2 L 35.55 78 L 35.72 76.8 L 35.74 75.6 L 35.62 74.4 L 35.36 73.2 L 34.95 72 L 34.41 70.8 L 33.74 69.6 L 32.96 68.4 L 32.07 67.2 L 31.08 66 L 30.02 64.8 L 28.88 63.6 L 27.7 62.4 L 26.48 61.2 L 25.25 60 L 24.02 58.8 L 22.8 57.6 L 21.62 56.4 L 20.48 55.2 L 19.42 54 L 18.43 52.8 L 17.54 51.6 L 16.76 50.4 L 16.09 49.2 L 15.55 48 L 15.14 46.8 L 14.88 45.6 L 14.76 44.4 L 14.78 43.2 L 14.95 42 L 15.26 40.8 L 15.71 39.6 L 16.3 38.4 L 17 37.2 L 17.83 36 L 18.75 34.8 L 19.76 33.6 L 20.85 32.4 L 22.01 31.2 L 23.2 30 L 24.43 28.8 L 25.66 27.6 L 26.89 26.4 L 28.1 25.2 L 29.27 24 L 30.49 22.8 L 31.72 21.6 L 32.87 20.4 L 33.91 19.2 L 34.85 18 L 35.66 16.8 L 36.34 15.6 L 36.89 14.4 L 37.29 13.2 L 37.55 12 Z" fill="url(#g-l3)" mask="url(#cutL-l3)"></path><path d="M 103.44 12 L 103.56 13.2 L 103.53 14.4 L 103.36 15.6 L 103.05 16.8 L 102.62 18 L 102.06 19.2 L 101.39 20.4 L 100.62 21.6 L 99.77 22.8 L 98.77 24 L 97.6 25.2 L 96.39 26.4 L 95.16 27.6 L 93.93 28.8 L 92.7 30 L 91.51 31.2 L 90.35 32.4 L 89.26 33.6 L 88.25 34.8 L 87.33 36 L 86.5 37.2 L 85.8 38.4 L 85.21 39.6 L 84.76 40.8 L 84.45 42 L 84.28 43.2 L 84.26 44.4 L 84.38 45.6 L 84.64 46.8 L 85.05 48 L 85.59 49.2 L 86.26 50.4 L 87.04 51.6 L 87.93 52.8 L 88.92 54 L 89.98 55.2 L 91.12 56.4 L 92.3 57.6 L 93.52 58.8 L 94.75 60 L 95.98 61.2 L 97.2 62.4 L 98.38 63.6 L 99.52 64.8 L 100.58 66 L 101.57 67.2 L 102.46 68.4 L 103.24 69.6 L 103.91 70.8 L 104.45 72 L 104.86 73.2 L 105.12 74.4 L 105.24 75.6 L 105.22 76.8 L 105.05 78 L 104.74 79.2 L 104.29 80.4 L 103.7 81.6 L 103 82.8 L 102.17 84 L 101.25 85.2 L 100.24 86.4 L 99.15 87.6 L 97.99 88.8 L 96.8 90 L 95.57 91.2 L 94.34 92.4 L 93.11 93.6 L 91.9 94.8 L 90.73 96 L 89.51 97.2 L 88.28 98.4 L 87.13 99.6 L 86.09 100.8 L 85.15 102 L 84.34 103.2 L 83.66 104.4 L 83.11 105.6 L 82.71 106.8 L 82.44 108 L 76.56 108 L 76.44 106.8 L 76.47 105.6 L 76.64 104.4 L 76.95 103.2 L 77.38 102 L 77.94 100.8 L 78.61 99.6 L 79.38 98.4 L 80.23 97.2 L 81.23 96 L 82.4 94.8 L 83.61 93.6 L 84.84 92.4 L 86.07 91.2 L 87.3 90 L 88.49 88.8 L 89.65 87.6 L 90.74 86.4 L 91.75 85.2 L 92.67 84 L 93.5 82.8 L 94.2 81.6 L 94.79 80.4 L 95.24 79.2 L 95.55 78 L 95.72 76.8 L 95.74 75.6 L 95.62 74.4 L 95.36 73.2 L 94.95 72 L 94.41 70.8 L 93.74 69.6 L 92.96 68.4 L 92.07 67.2 L 91.08 66 L 90.02 64.8 L 88.88 63.6 L 87.7 62.4 L 86.48 61.2 L 85.25 60 L 84.02 58.8 L 82.8 57.6 L 81.62 56.4 L 80.48 55.2 L 79.42 54 L 78.43 52.8 L 77.54 51.6 L 76.76 50.4 L 76.09 49.2 L 75.55 48 L 75.14 46.8 L 74.88 45.6 L 74.76 44.4 L 74.78 43.2 L 74.95 42 L 75.26 40.8 L 75.71 39.6 L 76.3 38.4 L 77 37.2 L 77.83 36 L 78.75 34.8 L 79.76 33.6 L 80.85 32.4 L 82.01 31.2 L 83.2 30 L 84.43 28.8 L 85.66 27.6 L 86.89 26.4 L 88.1 25.2 L 89.27 24 L 90.49 22.8 L 91.72 21.6 L 92.87 20.4 L 93.91 19.2 L 94.85 18 L 95.66 16.8 L 96.34 15.6 L 96.89 14.4 L 97.29 13.2 L 97.56 12 Z" fill="url(#g-l3)" mask="url(#cutR-l3)"></path><path d="M 22.45 12 L 22.71 13.2 L 23.11 14.4 L 23.66 15.6 L 24.34 16.8 L 25.15 18 L 26.09 19.2 L 27.13 20.4 L 28.28 21.6 L 29.51 22.8 L 30.73 24 L 31.9 25.2 L 33.11 26.4 L 34.34 27.6 L 35.57 28.8 L 36.8 30 L 37.99 31.2 L 39.15 32.4 L 40.24 33.6 L 41.25 34.8 L 42.17 36 L 43 37.2 L 43.7 38.4 L 44.29 39.6 L 44.74 40.8 L 45.05 42 L 45.22 43.2 L 45.24 44.4 L 45.12 45.6 L 44.86 46.8 L 44.45 48 L 43.91 49.2 L 43.24 50.4 L 42.46 51.6 L 41.57 52.8 L 40.58 54 L 39.52 55.2 L 38.38 56.4 L 37.2 57.6 L 35.98 58.8 L 34.75 60 L 33.52 61.2 L 32.3 62.4 L 31.12 63.6 L 29.98 64.8 L 28.92 66 L 27.93 67.2 L 27.04 68.4 L 26.26 69.6 L 25.59 70.8 L 25.05 72 L 24.64 73.2 L 24.38 74.4 L 24.26 75.6 L 24.28 76.8 L 24.45 78 L 24.76 79.2 L 25.21 80.4 L 25.8 81.6 L 26.5 82.8 L 27.33 84 L 28.25 85.2 L 29.26 86.4 L 30.35 87.6 L 31.51 88.8 L 32.7 90 L 33.93 91.2 L 35.16 92.4 L 36.39 93.6 L 37.6 94.8 L 38.77 96 L 39.77 97.2 L 40.62 98.4 L 41.39 99.6 L 42.06 100.8 L 42.62 102 L 43.05 103.2 L 43.36 104.4 L 43.53 105.6 L 43.56 106.8 L 43.45 108 L 37.55 108 L 37.29 106.8 L 36.89 105.6 L 36.34 104.4 L 35.66 103.2 L 34.85 102 L 33.91 100.8 L 32.87 99.6 L 31.72 98.4 L 30.49 97.2 L 29.27 96 L 28.1 94.8 L 26.89 93.6 L 25.66 92.4 L 24.43 91.2 L 23.2 90 L 22.01 88.8 L 20.85 87.6 L 19.76 86.4 L 18.75 85.2 L 17.83 84 L 17 82.8 L 16.3 81.6 L 15.71 80.4 L 15.26 79.2 L 14.95 78 L 14.78 76.8 L 14.76 75.6 L 14.88 74.4 L 15.14 73.2 L 15.55 72 L 16.09 70.8 L 16.76 69.6 L 17.54 68.4 L 18.43 67.2 L 19.42 66 L 20.48 64.8 L 21.62 63.6 L 22.8 62.4 L 24.02 61.2 L 25.25 60 L 26.48 58.8 L 27.7 57.6 L 28.88 56.4 L 30.02 55.2 L 31.08 54 L 32.07 52.8 L 32.96 51.6 L 33.74 50.4 L 34.41 49.2 L 34.95 48 L 35.36 46.8 L 35.62 45.6 L 35.74 44.4 L 35.72 43.2 L 35.55 42 L 35.24 40.8 L 34.79 39.6 L 34.2 38.4 L 33.5 37.2 L 32.67 36 L 31.75 34.8 L 30.74 33.6 L 29.65 32.4 L 28.49 31.2 L 27.3 30 L 26.07 28.8 L 24.84 27.6 L 23.61 26.4 L 22.4 25.2 L 21.23 24 L 20.23 22.8 L 19.38 21.6 L 18.61 20.4 L 17.94 19.2 L 17.38 18 L 16.95 16.8 L 16.64 15.6 L 16.47 14.4 L 16.44 13.2 L 16.55 12 Z" fill="url(#g-l3)"></path><path d="M 82.44 12 L 82.71 13.2 L 83.11 14.4 L 83.66 15.6 L 84.34 16.8 L 85.15 18 L 86.09 19.2 L 87.13 20.4 L 88.28 21.6 L 89.51 22.8 L 90.73 24 L 91.9 25.2 L 93.11 26.4 L 94.34 27.6 L 95.57 28.8 L 96.8 30 L 97.99 31.2 L 99.15 32.4 L 100.24 33.6 L 101.25 34.8 L 102.17 36 L 103 37.2 L 103.7 38.4 L 104.29 39.6 L 104.74 40.8 L 105.05 42 L 105.22 43.2 L 105.24 44.4 L 105.12 45.6 L 104.86 46.8 L 104.45 48 L 103.91 49.2 L 103.24 50.4 L 102.46 51.6 L 101.57 52.8 L 100.58 54 L 99.52 55.2 L 98.38 56.4 L 97.2 57.6 L 95.98 58.8 L 94.75 60 L 93.52 61.2 L 92.3 62.4 L 91.12 63.6 L 89.98 64.8 L 88.92 66 L 87.93 67.2 L 87.04 68.4 L 86.26 69.6 L 85.59 70.8 L 85.05 72 L 84.64 73.2 L 84.38 74.4 L 84.26 75.6 L 84.28 76.8 L 84.45 78 L 84.76 79.2 L 85.21 80.4 L 85.8 81.6 L 86.5 82.8 L 87.33 84 L 88.25 85.2 L 89.26 86.4 L 90.35 87.6 L 91.51 88.8 L 92.7 90 L 93.93 91.2 L 95.16 92.4 L 96.39 93.6 L 97.6 94.8 L 98.77 96 L 99.77 97.2 L 100.62 98.4 L 101.39 99.6 L 102.06 100.8 L 102.62 102 L 103.05 103.2 L 103.36 104.4 L 103.53 105.6 L 103.56 106.8 L 103.44 108 L 97.56 108 L 97.29 106.8 L 96.89 105.6 L 96.34 104.4 L 95.66 103.2 L 94.85 102 L 93.91 100.8 L 92.87 99.6 L 91.72 98.4 L 90.49 97.2 L 89.27 96 L 88.1 94.8 L 86.89 93.6 L 85.66 92.4 L 84.43 91.2 L 83.2 90 L 82.01 88.8 L 80.85 87.6 L 79.76 86.4 L 78.75 85.2 L 77.83 84 L 77 82.8 L 76.3 81.6 L 75.71 80.4 L 75.26 79.2 L 74.95 78 L 74.78 76.8 L 74.76 75.6 L 74.88 74.4 L 75.14 73.2 L 75.55 72 L 76.09 70.8 L 76.76 69.6 L 77.54 68.4 L 78.43 67.2 L 79.42 66 L 80.48 64.8 L 81.62 63.6 L 82.8 62.4 L 84.02 61.2 L 85.25 60 L 86.48 58.8 L 87.7 57.6 L 88.88 56.4 L 90.02 55.2 L 91.08 54 L 92.07 52.8 L 92.96 51.6 L 93.74 50.4 L 94.41 49.2 L 94.95 48 L 95.36 46.8 L 95.62 45.6 L 95.74 44.4 L 95.72 43.2 L 95.55 42 L 95.24 40.8 L 94.79 39.6 L 94.2 38.4 L 93.5 37.2 L 92.67 36 L 91.75 34.8 L 90.74 33.6 L 89.65 32.4 L 88.49 31.2 L 87.3 30 L 86.07 28.8 L 84.84 27.6 L 83.61 26.4 L 82.4 25.2 L 81.23 24 L 80.23 22.8 L 79.38 21.6 L 78.61 20.4 L 77.94 19.2 L 77.38 18 L 76.95 16.8 L 76.64 15.6 L 76.47 14.4 L 76.44 13.2 L 76.56 12 Z" fill="url(#g-l3)"></path><rect x="30" y="53" width="60" height="14" rx="3" fill="url(#g-l3)"></rect></g><text x="146" y="60" font-family="&#39;Space Grotesk&#39;,sans-serif" font-weight="700" font-size="64" letter-spacing="1" dominant-baseline="central" fill="#0a0a0a">HELIX</text></svg>